<?xml version="1.0" encoding="utf-8"?>
<!-- Generator: Adobe Illustrator 19.2.0, SVG Export Plug-In . SVG Version: 6.00 Build 0)  -->
<svg version="1.1" id="Слой_1" xmlns="http://www.w3.org/2000/svg" xmlns:xlink="http://www.w3.org/1999/xlink" x="0px" y="0px"
	 viewBox="0 0 1648.6 338.3" style="enable-background:new 0 0 1648.6 338.3;" xml:space="preserve">
<style type="text/css">
	.st0{font-family:'Lora-Bold';}
	.st1{font-size:298.2414px;}
	.st2{fill:#FFFFFF;}
</style>
<text transform="matrix(1 0 0 1 215.0537 253.5344)" class="st0 st1">DEJDA.UA</text>
<path d="M169.6,208.9c-0.3-1.4-4.6-5.5-4.6-5.5l-15.9,5.5l-26.6,10.4l-13.6,1.4H90.3l-19.4-11.3l-29.2-6.1L33,222.8V247l2,17.7
	l6.7,11.9l31.2-7.8l20-10.1l15.9,1.5l37,15l20.3,3.2l7.8-21.3C173.9,257,169.9,210.3,169.6,208.9z"/>
<path class="st2" d="M167.5,201.3c-0.6-0.1-1.2-0.1-1.9-0.1c-11,0-37.9,11.7-52.2,18.3c-2.8-0.9-5.9-1.3-9.2-1.3
	c-2.9,0-5.7,0.3-8.2,1c-12.5-6.8-36.4-18.6-50-18.6c-1.9,0-3.6,0.2-5,0.7c-15.8,5.6-12.9,76.5,0,78.8c0.6,0.1,1.2,0.1,1.9,0.1
	c11.5,0,40.1-12.6,53.8-19c2.4,1.3,4.9,2,7.6,2c2.4,0,4.8-0.6,7-1.7c12.1,6.6,37.2,19.3,51.2,19.3c1.9,0,3.6-0.2,5-0.7
	C183.3,274.4,180.4,203.6,167.5,201.3z M42.8,274.1c-0.1,0-0.2,0-0.3,0c-0.4-0.5-1.4-2-2.6-5.5c-1.2-3.6-2.1-8.4-2.8-13.7
	c-1.3-11.2-1.2-23.6,0.4-33.3c1.8-11,4.7-14.2,5.4-14.4c0.5-0.2,1.4-0.4,3-0.4c6.7,0,18.6,3.9,33.5,11c3.4,1.6,6.6,3.2,9.5,4.7
	c-2.9,2.1-4.9,5.1-5.8,9h-3.6c-1.7,0-3.1,1.4-3.1,3.1c0,1.7,1.4,3.1,3.1,3.1h3.1c0.1,2,0.5,4.1,1.1,6.2H73.3c-1.7,0-3.1,1.4-3.1,3.1
	s1.4,3.1,3.1,3.1h12.8c1.3,2.6,3,5,4.9,7c-4.1,1.9-9.1,4.1-14.3,6.3C54.5,272.7,46,274.1,42.8,274.1z M93.9,250.6
	c-3.1-4.2-5.1-9.8-5.1-14.5c0-3.9,1.3-6.7,3.9-8.7c2.6-2,6.8-3.1,11.6-3.1c4.8,0,8.9,1.1,11.6,3.1c2.6,1.9,3.9,4.8,3.9,8.7
	c0,4.8-2,10.3-5.1,14.5c-3.1,4.1-6.8,6.4-10.3,6.4C100.7,257,96.9,254.7,93.9,250.6z M165.4,274.3c-0.5,0.2-1.4,0.4-3,0.4
	c-6.7,0-18.6-3.9-33.5-11c-4.5-2.2-8.7-4.3-12.2-6.2c3.7-3.6,6.5-8.6,8-13.7h7.3c1.7,0,3.1-1.4,3.1-3.1c0-1.7-1.4-3.1-3.1-3.1h-6.2
	c0-0.5,0-1,0-1.5c0-5.8-2.1-10.1-5.6-13c3.4-1.6,7.3-3.3,11.3-5c22.3-9.4,30.9-10.8,34-10.8c0.1,0,0.2,0,0.3,0
	c0.4,0.5,1.4,2,2.6,5.5c1.2,3.6,2.1,8.4,2.8,13.7c1.3,11.2,1.2,23.6-0.4,33.3C169,270.8,166.1,274,165.4,274.3z"/>
<path d="M205.8,123.8c-1.7-8.6-4.5-17-8.2-25c-3.7-8.1-8.3-15.7-13.9-22.8c-5.6-7.1-12.2-13.4-19.9-18.7
	c-7.7-5.3-16.4-9.6-26.3-12.7c-9.9-3.1-20.8-4.7-32.8-4.7c-11.7,0-22.5,1.5-32.3,4.6c-9.8,3.1-18.5,7.3-26.3,12.6
	c-7.8,5.3-14.5,11.6-20.3,18.7c-5.8,7.1-10.6,14.7-14.4,22.8c-3.8,8.1-6.7,16.4-8.6,25C0.9,132.3,0,140.8,0,149.1
	c0,8.6,0.8,17.3,2.5,26.1c1.6,8.7,4.2,17.2,7.6,25.3c3.4,8.1,7.9,15.7,13.4,22.7c1.5,2,3.2,3.9,4.9,5.7c0.9-15.1,4.3-28.3,10.9-30.6
	c1.5-0.5,3.2-0.8,5.2-0.8c3.7,0,8.2,0.9,13,2.3c-2-4.5-3.7-9.1-5-13.9c-1.9-6.7-3.3-13.6-4.2-20.5c-0.9-6.9-1.3-13.5-1.3-19.8
	c0-6.3,0.4-12.7,1.2-19.3c0.8-6.6,2.1-12.9,3.9-19.1c1.8-6.2,4.1-12.1,6.9-17.5c2.8-5.5,6.3-10.3,10.4-14.5
	c4.1-4.2,8.9-7.4,14.4-9.8c5.5-2.4,11.8-3.6,18.9-3.6c10.1,0,18.8,2.3,26.2,6.9c7.4,4.6,13.5,11,18.3,19.2c4.9,8.2,8.4,18,10.8,29.3
	c2.3,11.3,3.5,23.7,3.5,37.1c0,6-0.4,12.3-1.2,18.7c-0.8,6.5-2,12.7-3.8,18.8c-0.9,3.2-2,6.2-3.2,9.2c5.6-1.7,10.5-2.8,13.9-2.8
	c0.7,0,1.4,0,2,0.2c5.3,0.9,8.9,13,10.4,27.5c1-1.2,2.1-2.4,3.1-3.6c5.8-7.2,10.6-14.8,14.4-22.9c3.8-8.1,6.7-16.4,8.6-25
	c1.9-8.6,2.8-17,2.8-25.3C208.4,140.9,207.5,132.4,205.8,123.8z"/>
</svg>
