<?xml version="1.0" encoding="UTF-8"?>
<svg width="7px" height="8px" viewBox="0 0 7 8" version="1.1" xmlns="http://www.w3.org/2000/svg" xmlns:xlink="http://www.w3.org/1999/xlink">
    <!-- Generator: Sketch 41 (35326) - http://www.bohemiancoding.com/sketch -->
    <title>Logo icon 3</title>
    <desc>Created with Sketch.</desc>
    <defs></defs>
    <g id="Page-1" stroke="none" stroke-width="1" fill="none" fill-rule="evenodd">
        <g id="Logo-icon-3" fill="#FFFFFF">
            <path d="M5.69612676,5.60730594 C5.68626761,5.55981735 5.54084507,5.42465753 5.54084507,5.42465753 L5.00598592,5.60730594 L4.1125,5.95312024 L3.65528169,6.00060883 L3.03292254,6.00060883 L2.38221831,5.62557078 L1.40123239,5.42343988 L1.10915493,6.06757991 L1.10915493,6.87245053 L1.17693662,7.46057839 L1.4,7.85388128 L2.45,7.59452055 L3.12042254,7.25844749 L3.65528169,7.30715373 L4.89876761,7.80639269 L5.5790493,7.91232877 L5.8415493,7.20487062 C5.8415493,7.20487062 5.70598592,5.65479452 5.69612676,5.60730594 Z" id="Shape"></path>
            <path d="M5.62464789,5.3564688 C5.60616197,5.35281583 5.58397887,5.35159817 5.56056338,5.35159817 C5.18961268,5.35159817 4.28626761,5.7412481 3.80809859,5.95920852 C3.71443662,5.93120244 3.6096831,5.91659056 3.5,5.91659056 C3.40140845,5.91659056 3.30897887,5.92754947 3.22271127,5.94946728 C2.80123239,5.72420091 2.00017606,5.33089802 1.54419014,5.33089802 C1.48010563,5.33089802 1.42341549,5.33820396 1.37535211,5.35525114 C0.844190141,5.54155251 0.940316901,7.89406393 1.37535211,7.9695586 C1.39507042,7.97321157 1.41602113,7.97442922 1.43943662,7.97442922 C1.82517606,7.97442922 2.78521127,7.5543379 3.24489437,7.34246575 C3.32376761,7.38508371 3.41003521,7.40943683 3.5,7.40943683 C3.58133803,7.40943683 3.66021127,7.38873668 3.73415493,7.35342466 C4.14207746,7.5738204 4.98380282,7.99391172 5.45580986,7.99391172 C5.51989437,7.99391172 5.57658451,7.98660578 5.62464789,7.9695586 C6.15580986,7.78325723 6.0584507,5.43074581 5.62464789,5.3564688 Z M1.43943662,7.76986301 L1.42834507,7.76986301 C1.41355634,7.75281583 1.38028169,7.70532725 1.34207746,7.58721461 C1.30264085,7.46666667 1.27059859,7.30958904 1.24964789,7.13059361 C1.20528169,6.76042618 1.21021127,6.34764079 1.26197183,6.0261796 C1.32235915,5.6608828 1.4209507,5.55616438 1.4443662,5.54764079 C1.46161972,5.54155251 1.49242958,5.53424658 1.54419014,5.53424658 C1.7709507,5.53424658 2.17024648,5.66331811 2.6693662,5.89832572 C2.78397887,5.95190259 2.89119718,6.00547945 2.98732394,6.05540335 C2.89119718,6.1260274 2.8221831,6.22465753 2.79137324,6.35251142 L2.67059859,6.35251142 C2.61390845,6.35251142 2.56707746,6.39878234 2.56707746,6.45479452 C2.56707746,6.5108067 2.61390845,6.55707763 2.67059859,6.55707763 L2.77658451,6.55707763 C2.78028169,6.62526636 2.79260563,6.6934551 2.81232394,6.76164384 L2.46355634,6.76164384 C2.4068662,6.76164384 2.36003521,6.80791476 2.36003521,6.86392694 C2.36003521,6.91993912 2.4068662,6.96621005 2.46355634,6.96621005 L2.89489437,6.96621005 C2.94049296,7.05144597 2.9959507,7.13059361 3.06126761,7.19756469 C2.92447183,7.25966514 2.7568662,7.33394216 2.5806338,7.40700152 C1.83133803,7.72359209 1.54419014,7.76986301 1.43943662,7.76986301 Z M3.15246479,6.99299848 C3.04647887,6.85418569 2.98116197,6.66910198 2.98116197,6.51202435 C2.98116197,6.38295282 3.02306338,6.28797565 3.11056338,6.22343988 C3.19929577,6.15768645 3.33732394,6.12115677 3.5,6.12115677 C3.66144366,6.12115677 3.79947183,6.15768645 3.88820423,6.22343988 C3.97570423,6.28797565 4.01760563,6.38173516 4.01760563,6.51202435 C4.01760563,6.67031963 3.95228873,6.85418569 3.84630282,6.99299848 C3.74401408,7.1281583 3.61707746,7.20608828 3.49876761,7.20608828 C3.38169014,7.20487062 3.25475352,7.1281583 3.15246479,6.99299848 Z M5.55440141,7.77716895 C5.53838028,7.78325723 5.50633803,7.79056317 5.45457746,7.79056317 C5.2278169,7.79056317 4.82852113,7.66149163 4.32940141,7.42648402 C4.1778169,7.35464231 4.03732394,7.28158295 3.92024648,7.22070015 C4.04348592,7.10136986 4.13838028,6.9369863 4.18767606,6.7652968 L4.43292254,6.7652968 C4.48961268,6.7652968 4.53644366,6.71902588 4.53644366,6.6630137 C4.53644366,6.60700152 4.48961268,6.56073059 4.43292254,6.56073059 L4.22341549,6.56073059 C4.22464789,6.54368341 4.22464789,6.52785388 4.22464789,6.5108067 C4.22464789,6.31841705 4.15440141,6.17595129 4.03855634,6.07975647 C4.15440141,6.02861492 4.28380282,5.97138508 4.4193662,5.91537291 C5.16866197,5.60243531 5.45580986,5.55616438 5.56056338,5.55616438 L5.57165493,5.55616438 C5.58644366,5.57321157 5.61971831,5.62070015 5.65792254,5.73881279 C5.69735915,5.85936073 5.72940141,6.01643836 5.75035211,6.19543379 C5.79471831,6.56560122 5.78978873,6.97838661 5.73802817,7.29984779 C5.67640845,7.66392694 5.5778169,7.76864536 5.55440141,7.77716895 Z" id="Shape"></path>
            <path d="M6.91126761,2.78356164 C6.85211268,2.49741248 6.76091549,2.21978691 6.63767606,1.95190259 C6.51320423,1.68401826 6.35792254,1.43196347 6.17059859,1.1957382 C5.98327465,0.959512938 5.76021127,0.752511416 5.50264085,0.574733638 C5.24507042,0.398173516 4.95052817,0.256925419 4.62024648,0.154642314 C4.28873239,0.0511415525 3.92147887,0 3.51725352,0 C3.12288732,0 2.76179577,0.0511415525 2.43397887,0.152207002 C2.10616197,0.253272451 1.81161972,0.393302892 1.55158451,0.569863014 C1.2903169,0.747640791 1.06355634,0.954642314 0.868838028,1.19086758 C0.675352113,1.42709285 0.513908451,1.6803653 0.384507042,1.94703196 C0.255105634,2.21491629 0.158978873,2.4913242 0.0961267606,2.77869102 C0.0320422535,3.06605784 0,3.34733638 0,3.62496195 C0,3.91232877 0.0271126761,4.19969559 0.0825704225,4.48949772 C0.138028169,4.77929985 0.22306338,5.05936073 0.338908451,5.32846271 C0.454753521,5.59756469 0.605105634,5.84840183 0.788732394,6.08219178 C0.840492958,6.14794521 0.895950704,6.21126332 0.953873239,6.27214612 C0.983450704,5.7716895 1.09929577,5.33333333 1.31866197,5.256621 C1.36795775,5.23957382 1.42711268,5.23105023 1.49242958,5.23105023 C1.61690141,5.23105023 1.76848592,5.26027397 1.92992958,5.3065449 C1.86338028,5.15799087 1.80669014,5.00456621 1.76109155,4.84505327 C1.69577465,4.62100457 1.64894366,4.39452055 1.6193662,4.16560122 C1.58978873,3.93668189 1.575,3.71750381 1.575,3.50806697 C1.575,3.29863014 1.58855634,3.08554033 1.61443662,2.86757991 C1.6403169,2.64961948 1.6834507,2.43774734 1.74383803,2.23196347 C1.80422535,2.0261796 1.8818662,1.83135464 1.97676056,1.6499239 C2.07165493,1.46849315 2.1875,1.30776256 2.32676056,1.16894977 C2.46478873,1.03135464 2.62623239,0.921765601 2.80985915,0.843835616 C2.99348592,0.764687976 3.20545775,0.725722983 3.44330986,0.725722983 C3.78221831,0.725722983 4.07552817,0.802435312 4.32323944,0.95585997 C4.5709507,1.10928463 4.77676056,1.32115677 4.93943662,1.59391172 C5.10211268,1.86666667 5.22288732,2.19056317 5.30176056,2.56560122 C5.37940141,2.94063927 5.41883803,3.35098935 5.41883803,3.79543379 C5.41883803,3.99512938 5.40528169,4.2021309 5.37940141,4.41643836 C5.35352113,4.63074581 5.31038732,4.83896499 5.25246479,5.03987823 C5.22165493,5.14459665 5.18591549,5.24687976 5.14647887,5.34550989 C5.33380282,5.28828006 5.49894366,5.25175038 5.61355634,5.25175038 C5.63820423,5.25175038 5.66038732,5.25296804 5.67887324,5.256621 C5.85633803,5.2870624 5.97834507,5.68767123 6.02764085,6.17108067 C6.06214789,6.13211568 6.09665493,6.09315068 6.12992958,6.05175038 C6.32341549,5.8130898 6.48485915,5.56103501 6.61426056,5.29315068 C6.74366197,5.02526636 6.83978873,4.7500761 6.90264085,4.46392694 C6.96672535,4.17899543 6.99753521,3.89893455 6.99753521,3.62496195 C6.99876761,3.35098935 6.96919014,3.07092846 6.91126761,2.78356164 Z" id="Shape"></path>
        </g>
    </g>
</svg>